<?xml version="1.0" standalone="no"?>
<!DOCTYPE svg PUBLIC "-//W3C//DTD SVG 20010904//EN"
 "http://www.w3.org/TR/2001/REC-SVG-20010904/DTD/svg10.dtd">
<svg version="1.0" xmlns="http://www.w3.org/2000/svg"
 width="56.000000pt" height="56.000000pt" viewBox="0 0 56.000000 56.000000"
 preserveAspectRatio="xMidYMid meet">

<g transform="translate(0.000000,56.000000) scale(0.100000,-0.100000)"
fill="#8CE492" stroke="none">
<path d="M243 535 c-18 -7 -39 -28 -49 -47 -9 -18 -27 -46 -40 -61 -13 -16
-24 -37 -24 -46 0 -10 -10 -30 -21 -45 -66 -84 -3 -206 106 -206 23 0 25 -3
25 -50 l0 -50 45 0 45 0 0 50 c0 50 0 50 33 50 101 0 160 123 97 203 -11 14
-20 35 -20 47 0 12 -13 35 -30 52 -16 16 -30 35 -30 42 0 17 -49 66 -66 66 -7
0 -18 2 -26 5 -7 2 -27 -2 -45 -10z m87 -45 c11 -11 20 -27 20 -36 0 -9 14
-29 30 -44 17 -15 30 -38 30 -50 0 -12 9 -33 20 -47 28 -36 27 -94 -2 -120
-32 -29 -65 -37 -99 -23 -28 12 -29 15 -29 76 0 59 2 65 30 86 31 23 40 48 16
48 -7 0 -20 -7 -27 -17 -12 -14 -15 -10 -19 38 -8 85 -25 59 -30 -47 l-5 -97
-33 28 c-25 21 -36 25 -45 16 -8 -8 1 -22 38 -56 l50 -45 -24 -20 c-28 -24
-52 -25 -91 -5 -51 27 -61 107 -16 144 9 7 16 26 16 41 0 17 11 36 30 53 17
15 30 36 30 47 0 23 36 50 67 50 13 0 32 -9 43 -20z"/>
</g>
</svg>
